<?xml version="1.0" standalone="no"?>
<!DOCTYPE svg PUBLIC "-//W3C//DTD SVG 20010904//EN"
 "http://www.w3.org/TR/2001/REC-SVG-20010904/DTD/svg10.dtd">
<svg version="1.0" xmlns="http://www.w3.org/2000/svg"
 width="1280.000000pt" height="720.000000pt" viewBox="0 0 1280.000000 720.000000"
 preserveAspectRatio="xMidYMid meet">

<g transform="translate(0.000000,720.000000) scale(0.100000,-0.100000)"
fill="#000000" stroke="none">
<path d="M3591 5347 c-12 -27 -21 -50 -21 -53 0 -8 -691 -1853 -979 -2612 -45
-118 -81 -220 -81 -227 0 -7 13 -18 29 -23 27 -10 30 -8 39 16 6 15 114 304
242 642 128 338 237 627 242 643 l10 27 541 -2 542 -3 245 -650 c135 -357 249
-658 252 -667 6 -14 11 -15 37 -5 17 6 31 14 31 18 0 4 -11 35 -24 70 -158
415 -614 1622 -821 2174 l-263 700 -21 -48z m297 -1062 c72 -192 134 -358 137
-367 5 -12 18 -18 41 -18 28 0 36 -5 44 -26 6 -14 10 -30 10 -35 0 -5 -201 -9
-511 -9 -483 0 -511 1 -504 18 4 9 9 25 12 34 3 11 18 18 40 20 l35 3 202 540
c111 297 205 549 210 560 8 21 -3 49 284 -720z"/>
<path d="M6675 4677 c-54 -188 -138 -476 -185 -639 l-86 -298 52 -15 c70 -20
71 -20 83 18 18 58 141 485 141 491 0 3 44 6 98 6 l99 0 57 -202 c32 -112 66
-233 77 -269 l19 -67 53 15 c28 9 56 19 61 23 7 8 -55 241 -174 645 -21 72
-71 244 -111 383 -40 138 -76 252 -79 252 -3 0 -50 -154 -105 -343z m165 -304
c0 -2 -26 -3 -59 -3 l-59 0 24 83 c13 45 27 89 30 97 4 11 59 -143 64 -177z"/>
<path d="M7222 4173 l3 -408 130 -3 c221 -4 228 5 223 306 -4 230 -2 227 -108
218 -36 -3 -80 -8 -97 -12 l-33 -6 0 156 0 156 -60 0 -60 0 2 -407z m238 -129
c0 -81 -5 -154 -10 -165 -8 -15 -22 -19 -60 -19 l-50 0 0 158 c0 87 3 162 7
165 3 4 30 7 60 7 l53 0 0 -146z"/>
<path d="M7884 4436 l1 -144 -87 -4 c-80 -3 -90 -5 -115 -31 l-28 -27 -3 -189
c-5 -269 10 -295 151 -274 40 6 76 6 82 2 5 -5 33 -9 62 -9 l53 0 0 410 0 410
-59 0 -59 0 2 -144z m-1 -401 c-1 -82 -2 -156 -2 -162 -1 -17 -83 -17 -99 -1
-17 17 -17 289 0 306 8 8 31 12 58 10 l44 -3 -1 -150z"/>
<path d="M8520 4170 l0 -411 58 3 57 3 1 408 1 407 -59 0 -58 0 0 -410z"/>
<path d="M11102 4428 l3 -63 48 0 c26 -1 52 2 58 5 6 4 9 31 7 61 l-3 54 -58
3 -58 3 3 -63z"/>
<path d="M8104 4269 c-17 -19 -19 -39 -19 -246 0 -280 -11 -263 170 -263 152
0 166 8 171 91 5 84 1 89 -62 89 l-54 0 0 -45 0 -45 -55 0 -55 0 0 75 0 75 98
0 c128 0 130 2 127 130 -2 125 -3 126 -21 144 -12 13 -41 16 -148 16 -122 0
-134 -2 -152 -21z m206 -132 l0 -62 -52 1 -53 0 -3 62 -3 62 56 0 55 0 0 -63z"/>
<path d="M8712 4028 l3 -263 57 -3 58 -3 2 213 3 213 58 3 57 3 0 -216 0 -216
58 3 57 3 1 195 c1 107 2 203 3 213 1 14 11 17 56 17 l55 0 0 -215 0 -216 58
3 57 3 0 248 c0 297 6 283 -115 271 -83 -8 -114 -8 -181 1 -25 4 -72 2 -105
-4 -39 -8 -60 -8 -62 -1 -2 5 -30 10 -63 10 l-59 0 2 -262z"/>
<path d="M9394 4269 c-17 -19 -19 -39 -19 -246 0 -281 -12 -263 174 -263 185
0 171 -21 171 265 0 287 14 265 -176 265 -120 0 -132 -2 -150 -21z m211 -234
c0 -82 -1 -156 -3 -162 -3 -8 -24 -13 -58 -13 l-54 0 0 165 0 166 57 -3 57 -3
1 -150z"/>
<path d="M9802 4039 c3 -235 4 -252 22 -265 23 -16 82 -18 156 -4 38 7 56 7
60 0 4 -7 30 -10 61 -8 l54 3 1 263 1 262 -58 0 -59 0 -2 -212 -3 -213 -57 -3
-58 -3 0 216 0 215 -61 0 -60 0 3 -251z"/>
<path d="M10232 4028 l3 -263 57 -3 58 -3 2 213 3 213 58 3 57 3 0 -216 0
-216 58 3 57 3 3 231 c1 135 -2 243 -7 258 -14 35 -50 42 -146 28 -53 -8 -81
-9 -83 -2 -2 6 -30 10 -63 10 l-59 0 2 -262z"/>
<path d="M10692 4274 c-19 -13 -22 -24 -22 -82 l0 -68 53 1 52 0 3 38 3 37 55
0 54 0 0 -59 0 -59 -100 -4 c-64 -2 -104 -8 -112 -16 -9 -9 -14 -52 -16 -137
-3 -114 -2 -125 17 -144 23 -23 56 -25 151 -12 30 5 56 4 58 0 2 -5 28 -9 58
-9 l54 0 0 248 c0 228 -2 250 -18 265 -26 24 -257 25 -290 1z m198 -346 l0
-73 -55 -2 -55 -1 0 74 0 74 55 0 55 0 0 -72z"/>
<path d="M11100 4025 l0 -266 58 3 57 3 1 263 1 262 -58 0 -59 0 0 -265z"/>
<path d="M11292 4028 l3 -263 57 -3 58 -3 2 213 3 213 58 3 57 3 0 -216 0
-216 58 3 57 3 1 195 c1 107 2 203 3 213 1 14 11 17 56 17 l55 0 0 -215 0
-216 58 3 57 3 0 248 c0 297 6 283 -115 271 -83 -8 -114 -8 -181 1 -25 4 -72
2 -105 -4 -39 -8 -60 -8 -62 -1 -2 5 -30 10 -63 10 l-59 0 2 -262z"/>
</g>
</svg>
